<svg xmlns="http://www.w3.org/2000/svg" viewBox="0 0 29 20" fill="currentColor"><g id="Icon"><path id="Vector" d="M15.383 15.725C9.76988 20.5202 5.78394 20.8584 3.74265 18.8154C1.86183 16.9346 3.4217 12.217 7.22301 7.55808L0 0.336792H4.61576L11.7905 7.5115C7.2627 12.0669 4.62266 16.9173 5.98755 18.2822C7.11776 19.4141 10.5964 17.8456 14.3494 14.6914L15.383 15.725Z" fill="currentColor"></path><path id="Vector_2" d="M28.5505 19.6626H23.9347L16.76 12.4879C21.2878 7.93424 23.9278 3.08209 22.5647 1.71893C21.4345 0.586992 17.9524 2.15721 14.1994 5.31146L13.1658 4.27788C18.7806 -0.519062 22.7683 -0.858998 24.8096 1.18401C26.6904 3.06483 25.1322 7.7824 21.3292 12.4413L28.5522 19.6626H28.5505Z" fill="currentColor"></path></g></svg>